<svg width="24" height="24" viewBox="0 0 24 24" fill="none" xmlns="http://www.w3.org/2000/svg">
<path opacity="0.4" d="M12 2C6.47715 2 2 6.47715 2 12C2 17.5228 6.47715 22 12 22C17.5228 22 22 17.5228 22 12C22 6.47715 17.5228 2 12 2Z" fill="#FF48B6"/>
<path d="M11.9998 8.98996C12.1898 8.98996 12.3798 9.05996 12.5298 9.20996L16.0598 12.74C16.3498 13.03 16.3498 13.51 16.0598 13.8C15.7698 14.09 15.2898 14.09 14.9998 13.8L11.9998 10.8L8.99984 13.8C8.70984 14.09 8.22984 14.09 7.93984 13.8C7.64984 13.51 7.64984 13.03 7.93984 12.74L11.4698 9.20996C11.6198 9.05996 11.8098 8.98996 11.9998 8.98996Z" fill="#FF48B6"/>
</svg>
