<svg width="50" height="50" viewBox="0 0 50 50" fill="none" xmlns="http://www.w3.org/2000/svg">
<path opacity="0.4" d="M43.75 43.75H6.25V39.5833C6.25 38.5417 7.08333 37.5 8.33333 37.5H41.6667C42.9167 37.5 43.75 38.5417 43.75 39.5833V43.75Z" fill="#FF48B6"/>
<path d="M29.1667 37.5V16.6667C29.1667 13.5417 27.0833 12.5 25 12.5H16.6667C14.5833 12.5 12.5 13.5417 12.5 16.6667V37.5H29.1667Z" fill="#FF48B6"/>
<path d="M37.5 37.5V25C37.5 22.9167 35.4167 20.8333 33.3333 20.8333H29.1667V37.5H37.5Z" fill="#FF48B6"/>
<path d="M18.75 20.8333H22.9167V25H18.75V20.8333Z" fill="#FF48B6"/>
<path d="M18.75 27.0833H22.9167V31.25H18.75V27.0833Z" fill="#FF48B6"/>
<path d="M33.3333 27.0833H35.4167V31.25H33.3333V27.0833Z" fill="#FF48B6"/>
<path d="M25 6.25C27.0833 6.25 28.75 7.91667 28.75 10C28.75 12.0833 27.0833 13.75 25 13.75C22.9167 13.75 21.25 12.0833 21.25 10C21.25 7.91667 22.9167 6.25 25 6.25Z" fill="#FF48B6"/>
<path d="M33.3333 12.5C35.4167 12.5 37.0833 14.1667 37.0833 16.25C37.0833 18.3333 35.4167 20 33.3333 20C31.25 20 29.5833 18.3333 29.5833 16.25C29.5833 14.1667 31.25 12.5 33.3333 12.5Z" fill="#FF48B6"/>
</svg>
