<svg width="50" height="50" viewBox="0 0 50 50" fill="none" xmlns="http://www.w3.org/2000/svg">
<path opacity="0.4" d="M31.2709 30.7291V45.8124L6.27085 45.8541V30.7291L6.25 27.6041V14.7291C6.25 13.3333 6.95836 12.0415 8.1042 11.2707L16.4375 5.70825C17.8334 4.77075 19.6666 4.77075 21.0625 5.70825L29.3958 11.2707C30.5625 12.0415 31.25 13.3333 31.25 14.7291V27.6041L31.2709 30.7291Z" fill="#FF48B6"/>
<path d="M45.8333 44.2708H43.1875V38.0208C45.1666 37.375 46.6042 35.5208 46.6042 33.3333V29.1667C46.6042 26.4375 44.375 24.2083 41.6458 24.2083C38.9167 24.2083 36.6875 26.4375 36.6875 29.1667V33.3333C36.6875 35.5 38.1041 37.3333 40.0416 38V44.2708H4.16667C3.31251 44.2708 2.60417 44.9792 2.60417 45.8333C2.60417 46.6875 3.31251 47.3958 4.16667 47.3958H41.5208C41.5625 47.3958 41.5833 47.4167 41.625 47.4167C41.6666 47.4167 41.6876 47.3958 41.7292 47.3958H45.8333C46.6875 47.3958 47.3958 46.6875 47.3958 45.8333C47.3958 44.9792 46.6875 44.2708 45.8333 44.2708Z" fill="#FF48B6"/>
<path d="M31.2709 30.7292H6.27085L6.25 27.6042H31.25L31.2709 30.7292Z" fill="#FF48B6"/>
<path d="M18.75 47.3958C17.8958 47.3958 17.1875 46.6875 17.1875 45.8333V38.0208C17.1875 37.1666 17.8958 36.4583 18.75 36.4583C19.6042 36.4583 20.3125 37.1666 20.3125 38.0208V45.8333C20.3125 46.6875 19.6042 47.3958 18.75 47.3958Z" fill="#FF48B6"/>
<path d="M18.75 22.3959C20.7635 22.3959 22.3958 20.7636 22.3958 18.75C22.3958 16.7365 20.7635 15.1042 18.75 15.1042C16.7365 15.1042 15.1042 16.7365 15.1042 18.75C15.1042 20.7636 16.7365 22.3959 18.75 22.3959Z" fill="#FF48B6"/>
</svg>
