<svg width="24" height="24" viewBox="0 0 24 24" fill="none" xmlns="http://www.w3.org/2000/svg">
<path opacity="0.4" d="M16.19 2H7.82001C4.18001 2 2.01001 4.17 2.01001 7.81V16.18C2.01001 19.82 4.18001 21.99 7.82001 21.99H16.19C19.83 21.99 22 19.82 22 16.18V7.81C22 4.17 19.83 2 16.19 2Z" fill="#FF48B6"/>
<path d="M8.82001 16.02C8.63001 16.02 8.44001 15.95 8.29001 15.8C8.00001 15.51 8.00001 15.03 8.29001 14.74L14.84 8.19003C15.13 7.90003 15.61 7.90003 15.9 8.19003C16.19 8.48003 16.19 8.96003 15.9 9.25003L9.35001 15.8C9.20001 15.95 9.01001 16.02 8.82001 16.02Z" fill="#FF48B6"/>
<path d="M9.23001 7.66003C8.42001 7.66003 7.75 8.32005 7.75 9.14005C7.75 9.95005 8.41001 10.62 9.23001 10.62C10.04 10.62 10.71 9.96005 10.71 9.14005C10.7 8.32005 10.04 7.66003 9.23001 7.66003Z" fill="#FF48B6"/>
<path d="M15.77 13.39C14.96 13.39 14.29 14.05 14.29 14.87C14.29 15.68 14.95 16.35 15.77 16.35C16.58 16.35 17.25 15.69 17.25 14.87C17.25 14.05 16.59 13.39 15.77 13.39Z" fill="#FF48B6"/>
</svg>
