<svg width="24" height="25" viewBox="0 0 24 25" fill="none" xmlns="http://www.w3.org/2000/svg">
<path opacity="0.4" d="M9.42001 2.65994L3.92001 4.71994C2.87001 5.10994 2.01001 6.35993 2.01001 7.47993V15.5799C2.01001 16.3899 2.54002 17.4599 3.19002 17.9399L8.69002 22.0499C9.66002 22.7799 11.25 22.7799 12.22 22.0499L17.72 17.9399C18.37 17.4499 18.9 16.3899 18.9 15.5799V7.47993C18.9 6.35993 18.04 5.10994 16.99 4.71994L11.49 2.65994C10.92 2.44994 9.99001 2.44994 9.42001 2.65994Z" fill="#FF48B6"/>
<path d="M19.26 7.25977H12.41C12.21 7.25977 12.02 7.26978 11.84 7.26978C10.12 7.36978 9.66003 7.99978 9.66003 9.95978V10.3498C9.66003 10.764 9.99582 11.0998 10.41 11.0998H21.25C21.6642 11.0998 22 10.764 22 10.3498V9.95978C22 7.79978 21.45 7.25977 19.26 7.25977Z" fill="#FF48B6"/>
<path d="M10.42 12.2002C10.0058 12.2002 9.66998 12.536 9.66998 12.9502V15.0402C9.66998 17.2002 10.22 17.7502 12.41 17.7502H19.26C21.41 17.7502 21.98 17.2302 22 15.1602V12.9502C22 12.536 21.6642 12.2002 21.25 12.2002H10.42ZM13.27 15.9702H12.02C11.72 15.9702 11.48 15.7302 11.48 15.4302C11.48 15.1302 11.72 14.8902 12.02 14.8902H13.27C13.57 14.8902 13.81 15.1302 13.81 15.4302C13.81 15.7302 13.57 15.9702 13.27 15.9702ZM17.32 15.9702H14.83C14.53 15.9702 14.29 15.7302 14.29 15.4302C14.29 15.1302 14.53 14.8902 14.83 14.8902H17.32C17.62 14.8902 17.86 15.1302 17.86 15.4302C17.87 15.7302 17.62 15.9702 17.32 15.9702Z" fill="#FF48B6"/>
</svg>
