<svg width="18" height="18" viewBox="0 0 18 18" fill="none" xmlns="http://www.w3.org/2000/svg">
<path d="M16.1702 8.055L15.1502 6.87C14.9552 6.645 14.7977 6.225 14.7977 5.925V4.65C14.7977 3.855 14.1452 3.2025 13.3502 3.2025H12.0752C11.7827 3.2025 11.3552 3.045 11.1302 2.85L9.94516 1.83C9.42766 1.3875 8.58016 1.3875 8.05516 1.83L6.87766 2.8575C6.65266 3.045 6.22516 3.2025 5.93266 3.2025H4.63516C3.84016 3.2025 3.18766 3.855 3.18766 4.65V5.9325C3.18766 6.225 3.03016 6.645 2.84266 6.87L1.83016 8.0625C1.39516 8.58 1.39516 9.42 1.83016 9.9375L2.84266 11.13C3.03016 11.355 3.18766 11.775 3.18766 12.0675V13.35C3.18766 14.145 3.84016 14.7975 4.63516 14.7975H5.93266C6.22516 14.7975 6.65266 14.955 6.87766 15.15L8.06266 16.17C8.58016 16.6125 9.42766 16.6125 9.95266 16.17L11.1377 15.15C11.3627 14.955 11.7827 14.7975 12.0827 14.7975H13.3577C14.1527 14.7975 14.8052 14.145 14.8052 13.35V12.075C14.8052 11.7825 14.9627 11.355 15.1577 11.13L16.1777 9.945C16.6127 9.4275 16.6127 8.5725 16.1702 8.055ZM12.1202 7.5825L8.49766 11.205C8.39266 11.31 8.25016 11.37 8.10016 11.37C7.95016 11.37 7.80766 11.31 7.70266 11.205L5.88766 9.39C5.67016 9.1725 5.67016 8.8125 5.88766 8.595C6.10516 8.3775 6.46516 8.3775 6.68266 8.595L8.10016 10.0125L11.3252 6.7875C11.5427 6.57 11.9027 6.57 12.1202 6.7875C12.3377 7.005 12.3377 7.365 12.1202 7.5825Z" fill="#07B704"/>
</svg>
